<svg id="Layer_1" xmlns="http://www.w3.org/2000/svg" viewBox="-254.3 357 98.7 54.7">
  <style>
    .st0{fill:#FFFFFF;} .st1{fill:none;stroke:#000000;stroke-miterlimit:10;}
  </style>
  <g id="XMLID_1_">
    <path class="st0" d="M-159.8 371.4c.3.8.4 1.6 1.4 1.7.6.1.4.6.5 1.1 0 .5-.1.7-.6.8-.6.1-.9.5-1.1 1-.4 1-.1 1.8 1 2.3.5.2.8.5.7 1.1 0 .3.1.6-.4.9-2 1-2.1 2.1-.2 3.3.8.6.8 1.4 0 1.9-1.7 1-1.7 2.3-.1 3.4 1 .7 1 1.3 0 1.9-1.5.9-1.5 2.4 0 3.4 1 .6 1 1.3 0 1.9-1.4.8-1.6 2.6-.1 3.3 1 .4.7.8.8 1.4-.3.1-.5.1-.7.1-3.9.4-7.1 3.2-7.6 7.3-.1 1.1-.5 1.2-1.4 1.2h-22.9c-17 0-34.1-.1-51.1.1-.5 0-1 .1-1.4-.2-.1-2.1-.8-3.9-2.2-5.4-1.5-1.6-3.2-2.6-5.4-2.8-.4 0-.8-.1-.9-.7 0-.5.2-.6.6-.8 1.5-.6 1.7-2.4.4-3.1-1-.6-1-1.1-.9-2 1.1-.2 1.6-.7 1.7-1.7.1-.8-.4-1.6-1-1.7-1.2-.4-.7-1.2-.8-1.8 1.1-.2 1.7-.8 1.8-1.7.1-.9-.4-1.6-1.3-1.9-.6-.2-.4-.7-.5-1.1-.1-.5.1-.7.6-.8.7-.1 1-.7 1.1-1.4.1-.8-.2-1.5-.9-1.9-1.1-.7-1.2-1.1 0-1.9 1.3-.9 1-3-.1-3.3-.5-.1-.8-.2-.7-.8 0-.5 0-1 .6-1.2.8-.3 1.1-.9 1.1-1.7 0-.8-.3-1.5-1.1-1.6-.6-.1-.8-.4-.7-.9.1-.6.5-.6 1-.6 4.5-.7 6.9-3.6 7.4-7.2.2-1.1.6-1.3 1.6-1.3h72.8c.8 0 1.5-.1 2.5 0 .5 5.2 3.3 7.9 8.3 8.5.1.5.4 1.1-.2 1.2-1.1.1-1.3.9-1.6 1.7z"/>
    <path class="st1" d="M-159.8 371.3c.3-.8.5-1.6 1.6-1.7.6-.1.3-.7.2-1.2-5-.6-7.8-3.3-8.3-8.5h-75.3c-1 0-1.4.2-1.6 1.3-.5 3.5-2.9 6.5-7.4 7.2-.4.1-.9 0-1 .6 0 .5.2.7.7.9.8.2 1.1.8 1.1 1.6s-.3 1.4-1.1 1.7c-.6.2-.6.7-.6 1.2 0 .6.3.6.7.8 1.2.3 1.4 2.5.1 3.3-1.2.8-1.2 1.2 0 1.9.7.4.9 1.1.9 1.9-.1.7-.4 1.3-1.1 1.4-.5.1-.7.3-.6.8 0 .4-.2.9.5 1.1.9.3 1.4 1 1.3 1.9-.1.9-.7 1.5-1.8 1.7.1.7-.4 1.5.8 1.8.6.2 1.1.9 1 1.7-.1.9-.7 1.5-1.7 1.7-.1.8-.1 1.4.9 2 1.4.8 1.2 2.5-.4 3.1-.4.2-.6.3-.6.8 0 .6.4.7.9.7 2.2.2 3.9 1.2 5.4 2.8 1.4 1.5 2.1 3.3 2.2 5.4.4.4.9.2 1.4.2 17-.2 34.1-.1 51.1-.1h22.9c.9 0 1.2-.1 1.4-1.2.5-4.2 3.7-6.9 7.6-7.3.2 0 .4-.1.7-.1-.1-.6.2-1-.8-1.4-1.6-.7-1.3-2.5.1-3.3 1.1-.6 1-1.3 0-1.9-1.5-.9-1.5-2.4 0-3.4 1-.6 1-1.2 0-1.9-1.6-1-1.5-2.4.1-3.4.8-.5.8-1.4 0-1.9-1.8-1.2-1.8-2.3.2-3.3.4-.2.3-.5.4-.9.1-.6-.2-.9-.7-1.1-1.1-.5-1.4-1.3-1-2.3.2-.5.5-1 1.1-1 .5-.1.6-.3.6-.8 0-.4.1-1-.5-1.1-1.1-.1-1.2-1-1.4-1.7"/>
  </g>
</svg>
